#Comment line ignore any data following # character 
#Hierarchical Translation and Rotation (.htr) file 
[Header]	
#Header keywords are followed by a single value 
FileType HTR		#Single word string
DataType HTRS		#Translation followed by rotation and scale data
FileVersion 1		#integer
NumSegments 64		#integer
NumFrames 3		#integer
DataFrameRate 30		#integer, data frame rate in this file
EulerRotationOrder ZYX
CalibrationUnits mm
RotationUnits Degrees
GlobalAxisofGravity Y
BoneLengthAxis Y
ScaleFactor 1.00
[SegmentNames&Hierarchy]
#CHILD	PARENT
Pinger_Root GLOBAL
Pelvis Pinger_Root
L_Hip Pelvis
R_Hip Pelvis
Rear_Leg01 Pelvis
Spine1 Pelvis
L_Leg01 L_Hip
L_Leg02 L_Leg01
L_Leg03 L_Leg02
L_Foot L_Leg03
L_Toe1_01 L_Foot
L_Toe2_01 L_Foot
L_Toe3_01 L_Foot
planeAlignerLeft L_Foot
L_Toe1_02 L_Toe1_01
L_Toe1_03 L_Toe1_02
L_Toe2_02 L_Toe2_01
L_Toe2_03 L_Toe2_02
L_Toe3_02 L_Toe3_01
L_Toe3_03 L_Toe3_02
planeLockWeightLeft planeAlignerLeft
R_Leg01 R_Hip
R_Leg02 R_Leg01
R_Leg03 R_Leg02
R_Foot R_Leg03
planeAlignerRight R_Foot
R_Toe1_01 R_Foot
R_Toe2_01 R_Foot
R_Toe3_01 R_Foot
planeLockWeightRight planeAlignerRight
R_Toe1_02 R_Toe1_01
R_Toe1_03 R_Toe1_02
R_Toe2_02 R_Toe2_01
R_Toe2_03 R_Toe2_02
R_Toe3_02 R_Toe3_01
R_Toe3_03 R_Toe3_02
Rear_Leg02 Rear_Leg01
Rear_Leg03 Rear_Leg02
Rear_Leg04 Rear_Leg03
Rear_Foot Rear_Leg04
planeAlignerCenter Rear_Foot
Rear_Toe1_01 Rear_Foot
Rear_Toe2_01 Rear_Foot
Rear_Toe3_01 Rear_Foot
planeLockWeightCenter planeAlignerCenter
Rear_Toe1_02 Rear_Toe1_01
Rear_Toe1_03 Rear_Toe1_02
Rear_Toe2_02 Rear_Toe2_01
Rear_Toe2_03 Rear_Toe2_02
Rear_Toe3_02 Rear_Toe3_01
Rear_Toe3_03 Rear_Toe3_02
Back_Bone Spine1
Head Spine1
Motor_Bone Back_Bone
Ping_Mechanism Back_Bone
BN_LookIK Head
bottomMouth Head
L_Mouth01 Head
L_mouthFront Head
mouthGun Head
R_Mouth01 Head
R_mouthFront Head
TopMouth Head
weapon_bone Head
[BasePosition]
#SegmentName Tx, Ty, Tz, Rx, Ry, Rz, BoneLength
Pinger_Root 0.000000 0.000000 0.000000 -90.000000 0.000000 0.000000 10.000000 
Pelvis 0.000000 0.000000 0.000000 0.000000 0.000000 0.000000 10.000000 
L_Hip 0.000000 0.000000 0.000000 0.000000 0.000000 0.000000 10.000000 
R_Hip 0.000000 0.000000 0.000000 0.000000 0.000000 0.000000 10.000000 
Rear_Leg01 0.000000 0.000000 0.000000 0.000000 0.000000 0.000000 10.000000 
Spine1 0.000000 0.000000 0.000000 0.000000 0.000000 0.000000 10.000000 
L_Leg01 0.000000 0.000000 0.000000 0.000000 0.000000 0.000000 10.000000 
L_Leg02 0.000000 0.000000 0.000000 0.000000 0.000000 0.000000 10.000000 
L_Leg03 0.000000 0.000000 0.000000 0.000000 0.000000 0.000000 10.000000 
L_Foot 0.000000 0.000000 0.000000 0.000000 0.000000 0.000000 10.000000 
L_Toe1_01 0.000000 0.000000 0.000000 0.000000 0.000000 0.000000 10.000000 
L_Toe2_01 0.000000 0.000000 0.000000 0.000000 0.000000 0.000000 10.000000 
L_Toe3_01 0.000000 0.000000 0.000000 0.000000 0.000000 0.000000 10.000000 
planeAlignerLeft 0.000000 0.000000 0.000000 0.000000 0.000000 0.000000 10.000000 
L_Toe1_02 0.000000 0.000000 0.000000 0.000000 0.000000 0.000000 10.000000 
L_Toe1_03 0.000000 0.000000 0.000000 0.000000 0.000000 0.000000 10.000000 
L_Toe2_02 0.000000 0.000000 0.000000 0.000000 0.000000 0.000000 10.000000 
L_Toe2_03 0.000000 0.000000 0.000000 0.000000 0.000000 0.000000 10.000000 
L_Toe3_02 0.000000 0.000000 0.000000 0.000000 0.000000 0.000000 10.000000 
L_Toe3_03 0.000000 0.000000 0.000000 0.000000 0.000000 0.000000 10.000000 
planeLockWeightLeft 0.000000 0.000000 0.000000 0.000000 0.000000 0.000000 10.000000 
R_Leg01 0.000000 0.000000 0.000000 0.000000 0.000000 0.000000 10.000000 
R_Leg02 0.000000 0.000000 0.000000 0.000000 0.000000 0.000000 10.000000 
R_Leg03 0.000000 0.000000 0.000000 0.000000 0.000000 0.000000 10.000000 
R_Foot 0.000000 0.000000 0.000000 0.000000 0.000000 0.000000 10.000000 
planeAlignerRight 0.000000 0.000000 0.000000 0.000000 0.000000 0.000000 10.000000 
R_Toe1_01 0.000000 0.000000 0.000000 0.000000 0.000000 0.000000 10.000000 
R_Toe2_01 0.000000 0.000000 0.000000 0.000000 0.000000 0.000000 10.000000 
R_Toe3_01 0.000000 0.000000 0.000000 0.000000 0.000000 0.000000 10.000000 
planeLockWeightRight 0.000000 0.000000 0.000000 0.000000 0.000000 0.000000 10.000000 
R_Toe1_02 0.000000 0.000000 0.000000 0.000000 0.000000 0.000000 10.000000 
R_Toe1_03 0.000000 0.000000 0.000000 0.000000 0.000000 0.000000 10.000000 
R_Toe2_02 0.000000 0.000000 0.000000 0.000000 0.000000 0.000000 10.000000 
R_Toe2_03 0.000000 0.000000 0.000000 0.000000 0.000000 0.000000 10.000000 
R_Toe3_02 0.000000 0.000000 0.000000 0.000000 0.000000 0.000000 10.000000 
R_Toe3_03 0.000000 0.000000 0.000000 0.000000 0.000000 0.000000 10.000000 
Rear_Leg02 0.000000 0.000000 0.000000 0.000000 0.000000 0.000000 10.000000 
Rear_Leg03 0.000000 0.000000 0.000000 0.000000 0.000000 0.000000 10.000000 
Rear_Leg04 0.000000 0.000000 0.000000 0.000000 0.000000 0.000000 10.000000 
Rear_Foot 0.000000 0.000000 0.000000 0.000000 0.000000 0.000000 10.000000 
planeAlignerCenter 0.000000 0.000000 0.000000 0.000000 0.000000 0.000000 10.000000 
Rear_Toe1_01 0.000000 0.000000 0.000000 0.000000 0.000000 0.000000 10.000000 
Rear_Toe2_01 0.000000 0.000000 0.000000 0.000000 0.000000 0.000000 10.000000 
Rear_Toe3_01 0.000000 0.000000 0.000000 0.000000 0.000000 0.000000 10.000000 
planeLockWeightCenter 0.000000 0.000000 0.000000 0.000000 0.000000 0.000000 10.000000 
Rear_Toe1_02 0.000000 0.000000 0.000000 0.000000 0.000000 0.000000 10.000000 
Rear_Toe1_03 0.000000 0.000000 0.000000 0.000000 0.000000 0.000000 10.000000 
Rear_Toe2_02 0.000000 0.000000 0.000000 0.000000 0.000000 0.000000 10.000000 
Rear_Toe2_03 0.000000 0.000000 0.000000 0.000000 0.000000 0.000000 10.000000 
Rear_Toe3_02 0.000000 0.000000 0.000000 0.000000 0.000000 0.000000 10.000000 
Rear_Toe3_03 0.000000 0.000000 0.000000 0.000000 0.000000 0.000000 10.000000 
Back_Bone 0.000000 0.000000 0.000000 0.000000 0.000000 0.000000 10.000000 
Head 0.000000 0.000000 0.000000 0.000000 0.000000 0.000000 10.000000 
Motor_Bone 0.000000 0.000000 0.000000 0.000000 0.000000 0.000000 10.000000 
Ping_Mechanism 0.000000 0.000000 0.000000 0.000000 0.000000 0.000000 10.000000 
BN_LookIK 0.000000 0.000000 0.000000 0.000000 0.000000 0.000000 10.000000 
bottomMouth 0.000000 0.000000 0.000000 0.000000 0.000000 0.000000 10.000000 
L_Mouth01 0.000000 0.000000 0.000000 0.000000 0.000000 0.000000 10.000000 
L_mouthFront 0.000000 0.000000 0.000000 0.000000 0.000000 0.000000 10.000000 
mouthGun 0.000000 0.000000 0.000000 0.000000 0.000000 0.000000 10.000000 
R_Mouth01 0.000000 0.000000 0.000000 0.000000 0.000000 0.000000 10.000000 
R_mouthFront 0.000000 0.000000 0.000000 0.000000 0.000000 0.000000 10.000000 
TopMouth 0.000000 0.000000 0.000000 0.000000 0.000000 0.000000 10.000000 
weapon_bone 0.000000 0.000000 0.000000 0.000000 0.000000 0.000000 10.000000 
#Beginning of Data. Separated by tabs
#Fr	Tx	Ty	Tz	Rx	Ry	Rz	SF
[Pinger_Root]
4 0.000000 0.000000 0.000000 -0.000075 -0.000000 -0.000020 0.000000
5 0.000000 0.000000 0.000000 -0.000075 -0.000000 -0.000020 0.000000
6 0.000000 0.000000 0.000000 -0.000075 -0.000000 -0.000020 0.000000
[Pelvis]
4 10.393709 -337.975739 4241.875000 -96.841187 -60.098206 90.138557 4255.331055
5 -16.878332 -601.600464 4267.240723 -98.237473 -62.681965 90.361641 4309.471680
6 -39.221325 -707.230835 4280.345703 -100.538673 -68.455971 90.077133 4338.556641
[L_Hip]
4 5.766392 125.831482 872.656799 160.158691 -45.484905 122.312202 881.701050
5 5.766392 125.831482 872.656799 160.158691 -45.484905 122.312202 881.701050
6 5.766392 125.831482 872.656799 160.158691 -45.484905 122.312202 881.701050
[R_Hip]
4 5.765438 125.836372 -872.654907 38.087841 49.812687 125.703735 881.699829
5 5.765438 125.836372 -872.654907 36.186970 51.003963 123.240067 881.699829
6 5.765438 125.836372 -872.654907 31.043602 53.646267 116.740730 881.699829
[Rear_Leg01]
4 -192.298416 -925.602966 -0.001907 160.927002 7.209685 -156.328186 945.367432
5 -192.298416 -925.602966 -0.001907 150.601242 8.371074 -157.688019 945.367432
6 -192.298416 -925.602966 -0.001907 137.819305 6.832215 -157.590027 945.367432
[Spine1]
4 290.604584 5.007505 0.000477 3.226486 -0.409475 11.731722 290.647736
5 290.604584 5.007505 0.000477 5.517339 -2.229681 12.852434 290.647736
6 290.604584 5.007505 0.000477 9.125335 -4.492702 15.382443 290.647736
[L_Leg01]
4 761.932007 -0.002384 -0.069261 10.180765 -31.723719 30.753139 761.932068
5 761.932007 -0.002384 -0.069261 15.368882 -31.223711 26.510855 761.932068
6 761.932007 -0.002384 -0.069261 21.816734 -28.807695 18.827593 761.932068
[L_Leg02]
4 1441.140503 -0.000954 -0.000715 -1.406690 0.477680 -101.836868 1441.140503
5 1441.140503 -0.000954 -0.000715 -1.466925 0.636636 -90.902840 1441.140503
6 1441.140503 -0.000954 -0.000715 -1.424771 0.691341 -86.647797 1441.140503
[L_Leg03]
4 1686.963989 -0.000715 -0.000954 0.029382 -0.010243 102.463905 1686.963989
5 1686.963989 -0.000715 -0.000954 0.054312 -0.012807 94.866348 1686.963989
6 1686.963989 -0.000715 -0.000954 0.072163 -0.014629 91.018906 1686.963989
[L_Foot]
4 3041.570068 -30.715107 11.297464 -5.827009 16.135815 27.624641 3041.746094
5 3041.570068 -30.715107 11.297464 -7.691656 14.850780 24.890242 3041.746094
6 3041.570068 -30.715107 11.297464 -9.207955 13.059216 25.279728 3041.746094
[L_Toe1_01]
4 -188.216690 -224.732346 -21.137953 93.732361 -17.507927 -177.989212 293.899567
5 -188.216690 -224.732346 -21.137953 93.921524 -20.966255 -179.045044 293.899567
6 -188.216690 -224.732346 -21.137953 94.143562 -24.403101 -179.813950 293.899567
[L_Toe2_01]
4 200.746536 -219.926590 148.838394 -101.604904 -20.414387 -38.116219 332.896027
5 200.746536 -219.926590 148.838394 -104.101624 -18.497978 -34.686600 332.896027
6 200.746536 -219.926590 148.838394 -106.565163 -16.432201 -31.162369 332.896027
[L_Toe3_01]
4 188.832520 -219.859131 -191.078659 -108.407166 26.018579 -64.637581 347.140900
5 188.832520 -219.859131 -191.078659 -110.971512 29.545029 -65.596375 347.140900
6 188.832520 -219.859131 -191.078659 -114.485016 33.551682 -69.646576 347.140900
[planeAlignerLeft]
4 0.812531 -811.448792 -0.314951 0.000000 -90.000000 -90.001900 811.449280
5 0.812531 -811.448792 -0.314951 0.000000 -90.000000 -90.001900 811.449280
6 0.812531 -811.448792 -0.314951 0.000000 -90.000000 -90.001900 811.449280
[L_Toe1_02]
4 413.761139 0.000477 0.000000 0.001661 0.070897 0.001661 413.761139
5 413.761139 0.000477 0.000000 0.001661 0.070897 0.001661 413.761139
6 413.761139 0.000477 0.000000 0.001661 0.070897 0.001661 413.761139
[L_Toe1_03]
4 464.317322 0.000358 -0.000089 0.001673 -0.448396 -0.003292 464.317322
5 464.317322 0.000358 -0.000089 0.001673 -0.448396 -0.003292 464.317322
6 464.317322 0.000358 -0.000089 0.001673 -0.448396 -0.003292 464.317322
[L_Toe2_02]
4 342.235809 -0.000477 0.000238 0.001179 -79.229195 0.001179 342.235809
5 342.235809 -0.000477 0.000238 0.002933 -80.088448 0.002933 342.235809
6 342.235809 -0.000477 0.000238 0.004685 -80.947609 0.004685 342.235809
[L_Toe2_03]
4 420.210846 -0.000715 0.000000 -179.998489 69.822372 -179.994934 420.210846
5 420.210846 -0.000715 0.000000 -179.999237 63.994774 -179.995651 420.210846
6 420.210846 -0.000715 0.000000 179.992416 55.159626 179.999741 420.210846
[L_Toe3_02]
4 329.270111 0.000954 0.000000 0.004676 -84.412994 0.004676 329.270111
5 329.270111 0.000954 0.000000 0.004675 -84.686623 0.004675 329.270111
6 329.270111 0.000954 0.000000 0.004675 -84.685997 0.004675 329.270111
[L_Toe3_03]
4 439.137451 -0.001907 0.000954 179.992569 53.691448 179.999908 439.137451
5 439.137451 -0.001907 0.000954 179.992966 48.142563 -179.999542 439.137451
6 439.137451 -0.001907 0.000954 179.993256 42.593647 -179.999100 439.137451
[planeLockWeightLeft]
4 -0.000954 0.000238 -0.000305 -0.011826 -0.004376 0.005620 0.001029
5 -0.000954 0.000238 -0.000305 -0.011826 -0.004376 0.005620 0.001029
6 -0.000954 0.000238 -0.000305 -0.011826 -0.004376 0.005620 0.001029
[R_Leg01]
4 761.455627 -0.001907 -0.000358 167.180313 -51.671303 -29.414433 761.455688
5 761.455627 -0.001907 -0.000358 154.403809 -50.161205 -9.782992 761.455688
6 761.455627 -0.001907 -0.000358 142.506332 -49.450008 9.055314 761.455688
[R_Leg02]
4 1441.140625 0.000000 -0.000238 0.232476 -0.114102 -124.072830 1441.140625
5 1441.140625 0.000000 -0.000238 1.008951 -0.314267 -107.909439 1441.140625
6 1441.140625 0.000000 -0.000238 1.228046 -0.428286 -99.349380 1441.140625
[R_Leg03]
4 1686.963989 0.000954 0.001431 -0.021533 0.006187 104.103767 1686.963989
5 1686.963989 0.000954 0.001431 -0.021553 0.006117 103.733276 1686.963989
6 1686.963989 0.000954 0.001431 -0.038847 0.010462 100.110039 1686.963989
[R_Foot]
4 3041.560059 -30.531288 -11.204481 1.098400 -26.934172 42.602242 3041.734131
5 3041.560059 -30.531288 -11.204481 0.229699 -26.317265 35.985928 3041.734131
6 3041.560059 -30.531288 -11.204481 -0.660007 -26.207441 34.698723 3041.734131
[planeAlignerRight]
4 -0.635147 -812.270569 -0.364304 0.000000 -89.960434 -90.005180 812.270874
5 -0.635147 -812.270569 -0.364304 0.000000 -89.960434 -90.005180 812.270874
6 -0.635147 -812.270569 -0.364304 0.000000 -89.960434 -90.005180 812.270874
[R_Toe1_01]
4 -188.383347 -224.864899 21.052242 77.321449 1.804365 -172.906387 294.101532
5 -188.383347 -224.864899 21.052242 77.407265 2.175546 -172.184387 294.101532
6 -188.383347 -224.864899 21.052242 77.469482 2.458674 -171.692184 294.101532
[R_Toe2_01]
4 200.637817 -220.002121 -148.787384 -87.511421 39.936031 -48.648872 332.857574
5 200.637817 -220.002121 -148.787384 -87.226677 40.729790 -47.979237 332.857574
6 200.637817 -220.002121 -148.787384 -87.039726 41.390667 -47.524475 332.857574
[R_Toe3_01]
4 188.606735 -220.092957 191.126343 -74.274712 -13.875829 -64.699890 347.192566
5 188.606735 -220.092957 191.126343 -74.474297 -14.239087 -64.328659 347.192566
6 188.606735 -220.092957 191.126343 -74.676613 -14.601075 -63.955482 347.192566
[planeLockWeightRight]
4 -0.000477 0.000000 0.000000 -0.011823 -0.004379 -0.000027 0.000477
5 -0.000477 0.000000 0.000000 -0.011823 -0.004379 -0.000027 0.000477
6 -0.000477 0.000000 0.000000 -0.011823 -0.004379 -0.000027 0.000477
[R_Toe1_02]
4 413.762085 0.000477 -0.000119 0.001388 -25.475176 0.001388 413.762085
5 413.762085 0.000477 -0.000119 0.001395 -24.543049 0.001395 413.762085
6 413.762085 0.000477 -0.000119 0.001407 -23.087362 0.001407 413.762085
[R_Toe1_03]
4 464.317810 0.000000 0.001088 0.002999 43.929047 0.002999 464.317810
5 464.317810 0.000000 0.001088 0.001660 38.340012 -0.000284 464.317810
6 464.317810 0.000000 0.001088 0.000792 32.750935 -0.003191 464.317810
[R_Toe2_02]
4 342.234741 -0.000954 0.000238 -0.002336 -77.836548 -0.002336 342.234741
5 342.234741 -0.000954 0.000238 -0.002335 -78.215828 -0.002335 342.234741
6 342.234741 -0.000954 0.000238 -0.002335 -78.595039 -0.002335 342.234741
[R_Toe2_03]
4 420.210846 0.000715 -0.000268 -179.993515 76.027946 -179.997040 420.210846
5 420.210846 0.000715 -0.000268 -179.994141 73.865540 -179.997665 420.210846
6 420.210846 0.000715 -0.000268 -179.994522 72.179504 -179.998062 420.210846
[R_Toe3_02]
4 329.270355 -0.000477 -0.000954 0.001176 -83.461388 0.001176 329.270355
5 329.270355 -0.000477 -0.000954 0.001175 -83.717056 0.001175 329.270355
6 329.270355 -0.000477 -0.000954 0.001175 -83.972664 0.001175 329.270355
[R_Toe3_03]
4 439.137939 0.000238 0.001431 -179.999344 62.866871 -179.995758 439.137939
5 439.137939 0.000238 0.001431 -179.994522 60.379154 -179.987305 439.137939
6 439.137939 0.000238 0.001431 -179.995087 58.437542 -179.987823 439.137939
[Rear_Leg02]
4 1162.777710 -0.029802 0.005960 -3.507882 18.050726 -71.744728 1162.777710
5 1162.777710 -0.029802 0.005960 -5.399065 26.524767 -77.698692 1162.777710
6 1162.777710 -0.029802 0.005960 -6.937082 35.780376 -89.002167 1162.777710
[Rear_Leg03]
4 607.192505 -0.013351 -0.073195 0.006472 -0.002118 64.456055 607.192505
5 607.192505 -0.013351 -0.073195 0.006472 -0.002121 64.496994 607.192505
6 607.192505 -0.013351 -0.073195 0.006479 -0.002099 64.117691 607.192505
[Rear_Leg04]
4 995.874512 -0.020504 -0.011921 -0.040558 -0.015052 58.550915 995.874573
5 995.874512 -0.020504 -0.011921 -0.040568 -0.015024 58.630318 995.874573
6 995.874512 -0.020504 -0.011921 -0.040471 -0.015288 57.884312 995.874573
[Rear_Foot]
4 3096.176270 -0.067472 -0.041425 101.999138 71.670898 -86.962646 3096.176270
5 3096.176270 -0.067472 -0.041425 104.643852 62.746468 -82.028900 3096.176270
6 3096.176270 -0.067472 -0.041425 104.128616 53.838833 -76.626701 3096.176270
[planeAlignerCenter]
4 0.350077 0.966311 -838.790894 0.000009 0.000003 -179.999985 838.791565
5 0.350077 0.966311 -838.790894 0.000009 0.000003 -179.999985 838.791565
6 0.350077 0.966311 -838.790894 0.000009 0.000003 -179.999985 838.791565
[Rear_Toe1_01]
4 0.653352 83.966492 -371.173737 -4.260656 22.130856 89.087639 380.553192
5 0.653352 83.966492 -371.173737 -8.781958 21.552362 88.276268 380.553192
6 0.653352 83.966492 -371.173737 -14.073338 21.533833 87.375763 380.553192
[Rear_Toe2_01]
4 178.200760 -294.826019 -362.060547 -8.437229 17.622248 -67.983200 499.765686
5 178.200760 -294.826019 -362.060547 -8.296615 13.022155 -66.949669 499.765686
6 178.200760 -294.826019 -362.060547 -8.168487 7.080914 -65.309776 499.765686
[Rear_Toe3_01]
4 -153.359680 -308.780914 -362.060852 3.861418 17.121006 -108.350540 499.952881
5 -153.359680 -308.780914 -362.060852 3.793902 14.543493 -106.888603 499.952881
6 -153.359680 -308.780914 -362.060852 3.751930 13.227053 -105.454239 499.952881
[planeLockWeightCenter]
4 -0.000062 0.000238 0.000000 -0.011814 -0.004373 -0.000015 0.000246
5 -0.000062 0.000238 0.000000 -0.011814 -0.004373 -0.000015 0.000246
6 -0.000062 0.000238 0.000000 -0.011814 -0.004373 -0.000015 0.000246
[Rear_Toe1_02]
4 379.707825 0.194073 0.000477 -0.006678 -31.255411 -0.006678 379.707855
5 379.707825 0.194073 0.000477 -0.006703 -30.516558 -0.006703 379.707855
6 379.707825 0.194073 0.000477 -0.006716 -30.132254 -0.006716 379.707855
[Rear_Toe1_03]
4 500.129700 0.165701 0.000119 -179.992706 78.076233 -179.996216 500.129761
5 500.129700 0.165701 0.000119 -179.994232 73.519478 -179.997757 500.129761
6 500.129700 0.165701 0.000119 -179.994690 71.282379 -179.998245 500.129761
[Rear_Toe2_02]
4 340.494507 0.000238 -0.000954 0.001263 -46.680107 0.001263 340.494507
5 340.494507 0.000238 -0.000954 0.001332 -33.521469 0.001332 340.494507
6 340.494507 0.000238 -0.000954 0.001450 -18.035440 0.001450 340.494507
[Rear_Toe2_03]
4 433.103577 0.000000 0.000238 -0.003302 40.741539 0.000544 433.103546
5 433.103577 0.000000 0.000238 -0.003154 27.791090 0.000929 433.103546
6 433.103577 0.000000 0.000238 -0.003152 14.127682 0.001282 433.103546
[Rear_Toe3_02]
4 340.494141 -0.000358 -0.000477 -0.002502 -46.416298 -0.002502 340.494171
5 340.494141 -0.000358 -0.000477 -0.002571 -39.243317 -0.002571 340.494171
6 340.494141 -0.000358 -0.000477 -0.002610 -35.738731 -0.002610 340.494171
[Rear_Toe3_03]
4 433.103577 0.001431 -0.000238 0.000554 40.462051 -0.003297 433.103546
5 433.103577 0.001431 -0.000238 0.000778 33.235798 -0.003196 433.103546
6 433.103577 0.001431 -0.000238 0.006383 29.864323 -0.001698 433.103546
[Back_Bone]
4 1312.175781 -701.934692 0.000954 -7.606387 9.806739 -73.036331 1488.125488
5 1312.175781 -701.934692 0.000954 -5.726388 7.029770 -64.011696 1488.125488
6 1312.175781 -701.934692 0.000954 -2.540911 3.807633 -58.535336 1488.125488
[Head]
4 1406.159424 809.709290 0.001431 8.281357 4.052110 -6.938875 1622.625488
5 1406.159424 809.709290 0.001431 18.807571 -8.787814 16.351864 1622.625488
6 1406.159424 809.709290 0.001431 10.628629 -5.881051 31.579617 1622.625488
[Motor_Bone]
4 1158.364380 -417.834747 0.000477 -0.496288 10.459624 -71.405197 1231.419434
5 1158.364380 -417.834747 0.000477 -0.636817 14.089304 -55.871593 1231.419434
6 1158.364380 -417.834747 0.000477 1.739583 14.072876 -51.736736 1231.419434
[Ping_Mechanism]
4 1376.293701 -165.713776 -3.353348 0.000103 -0.000053 82.120995 1386.238281
5 1370.206177 -34.478916 -4.675980 0.000103 -0.000053 82.120995 1370.647949
6 1330.776367 -114.041138 0.347252 0.000103 -0.000053 82.120995 1335.653809
[BN_LookIK]
4 193.241119 1380.371704 -0.002861 0.000000 89.965736 -31.038179 1393.832153
5 193.241119 1380.371704 -0.002861 0.000000 89.965736 -31.038179 1393.832153
6 193.241119 1380.371704 -0.002861 0.000000 89.965736 -31.038179 1393.832153
[bottomMouth]
4 -435.092926 615.759399 -0.000954 -0.000022 0.000016 73.527184 753.966492
5 -435.092926 615.759399 -0.000954 -0.000022 0.000016 73.527184 753.966492
6 -435.092926 615.759399 -0.000954 -0.000022 0.000016 73.527184 753.966492
[L_Mouth01]
4 554.440979 7.658243 838.222046 150.204178 23.759130 109.605339 1005.027161
5 554.440979 7.658243 838.222046 150.204178 23.759130 109.605339 1005.027161
6 554.440979 7.658243 838.222046 150.204178 23.759130 109.605339 1005.027161
[L_mouthFront]
4 551.629089 934.514771 339.150421 0.000081 2.804060 79.119301 1136.941284
5 551.629089 934.514771 339.150421 0.000081 2.804060 79.119301 1136.941284
6 551.629089 934.514771 339.150421 0.000081 2.804060 79.119301 1136.941284
[mouthGun]
4 55.332661 1627.420898 0.000000 0.000023 0.000009 -11.038128 1628.361328
5 55.332661 1627.420898 0.000000 0.000023 0.000009 -11.038128 1628.361328
6 55.332661 1627.420898 0.000000 0.000023 0.000009 -11.038128 1628.361328
[R_Mouth01]
4 554.442383 7.659197 -838.223938 29.795891 -23.759109 109.605331 1005.029541
5 554.442383 7.659197 -838.223938 29.795891 -23.759109 109.605331 1005.029541
6 554.442383 7.659197 -838.223938 29.795891 -23.759109 109.605331 1005.029541
[R_mouthFront]
4 551.629089 934.514282 -339.151367 0.000029 -2.803930 79.119133 1136.941162
5 551.629089 934.514282 -339.151367 0.000029 -2.803930 79.119133 1136.941162
6 551.629089 934.514282 -339.151367 0.000029 -2.803930 79.119133 1136.941162
[TopMouth]
4 461.269867 -56.106091 -0.008583 -0.000059 -0.000268 92.025169 464.669525
5 461.269867 -56.106091 -0.008583 -0.000059 -0.000268 92.025169 464.669525
6 461.269867 -56.106091 -0.008583 -0.000059 -0.000268 92.025169 464.669525
[weapon_bone]
4 -987.239868 1448.372803 0.001431 0.000000 89.965736 -31.038221 1752.833740
5 -987.239868 1448.372803 0.001431 0.000000 89.965736 -31.038221 1752.833740
6 -987.239868 1448.372803 0.001431 0.000000 89.965736 -31.038221 1752.833740
